<?xml version="1.0" standalone="no"?><!DOCTYPE svg PUBLIC "-//W3C//DTD SVG 1.1//EN" "http://www.w3.org/Graphics/SVG/1.1/DTD/svg11.dtd"><svg t="1678871757219" class="icon" viewBox="0 0 1024 1024" version="1.1" xmlns="http://www.w3.org/2000/svg" p-id="8049" xmlns:xlink="http://www.w3.org/1999/xlink" width="200" height="200"><path d="M512 73.216c-249.344 0-452.096 198.144-452.096 442.368S262.144 957.952 512 957.952c14.336 0 28.672-0.512 42.496-2.048v3.584h316.416v-175.104c58.368-74.752 93.184-167.936 93.184-268.8C964.096 271.36 761.344 73.216 512 73.216z m61.44 616.448h-71.68l16.384-133.632h-142.848l-16.896 134.144-71.168 0.512 43.52-357.888h71.168l-18.944 156.16 142.848-0.512 19.456-156.16h71.68l-43.52 357.376z m143.36 0l-71.168 0.512 30.208-246.272h71.168l-30.208 245.76z m1.536-290.816c-19.456 0-30.72-9.216-33.792-27.136-3.072-18.944 16.384-39.424 36.864-39.936 19.968-0.512 34.816 10.24 34.816 29.696 0.512 19.968-18.432 37.376-37.888 37.376z" p-id="8050" fill="#8a8a8a"></path></svg>