<svg width="63" height="47" viewBox="0 0 63 47" fill="none" xmlns="http://www.w3.org/2000/svg">
<g clip-path="url(#clip0_0_38)">
<path fill-rule="evenodd" clip-rule="evenodd" d="M2.08127 7.92044L14.9248 0.680137C14.9248 0.680137 18.6128 -1.83986 21.4886 2.8207C23.6851 6.38124 37.7867 30.6824 37.7867 30.6824C37.7867 30.6824 38.4958 31.8286 40.119 31.8286C41.7424 31.8286 42.45 30.6977 42.45 30.6977L50.7844 16.1188C50.7844 16.1188 52.4699 13.2159 49.972 11.7495C49.972 11.7495 47.5307 10.2605 45.9484 12.8189L39.9747 22.8958C39.9747 22.8958 39.4072 23.9622 38.4547 23.9622C37.3494 23.9622 36.8102 22.8915 36.8102 22.8915L34.0009 18.3039C34.0009 18.3039 33.5084 17.714 33.4843 17.0651C33.4574 16.3616 33.974 15.766 33.974 15.766C33.974 15.766 41.2894 3.05951 41.765 2.20933C42.239 1.35783 44.8375 -1.20494 48.2709 0.824662C51.8019 2.91236 60.6006 7.73794 60.6006 7.73794C60.6006 7.73794 64.6228 9.9531 62.2451 14.0071C60.4647 17.0454 44.0577 44.6675 44.0577 44.6675C44.0577 44.6675 42.6453 46.9979 39.9888 46.9979C37.3239 46.9979 35.7899 44.612 35.7899 44.612L17.141 12.8189C17.141 12.8189 15.4441 10.8902 13.1443 12.1618C10.8446 13.4364 11.9683 16.1917 11.9683 16.1917L20.2192 30.4187C20.1541 30.4662 21.2425 31.9226 23.1318 31.9226C23.613 31.9226 24.4678 31.5012 24.4678 31.5012L28.6782 38.404C28.6782 38.404 29.4141 39.3777 29.4141 40.0025C29.4141 41.1671 28.9753 41.5361 28.9753 41.5361L27.1313 44.612C27.1313 44.612 25.9057 46.9792 23.136 46.9792C20.3649 46.9792 19.1152 45.1578 18.6397 44.2845C18.1628 43.4116 0.545706 13.6377 0.545706 13.6377C0.545706 13.6377 -1.41718 9.88636 2.08127 7.92044Z" fill="#1D768A"/>
</g>
<defs>
<clipPath id="clip0_0_38">
<rect width="63" height="47" fill="white"/>
</clipPath>
</defs>
</svg>
